<?xml version="1.0" encoding="UTF-8"?>
<svg width="50px" height="50px" viewBox="0 0 50 50" version="1.1" xmlns="http://www.w3.org/2000/svg" xmlns:xlink="http://www.w3.org/1999/xlink">
    <!-- Generator: Sketch 59.1 (86144) - https://sketch.com -->
    <title>Artboard</title>
    <desc>Created with Sketch.</desc>
    <g id="Artboard" stroke="none" stroke-width="1" fill="none" fill-rule="evenodd">
        <rect fill="#DDE8ED" x="0" y="0" width="50" height="50"></rect>
        <g id="dove" transform="translate(9.000000, 5.000000)" fill-rule="nonzero">
            <g id="Group" transform="translate(22.000000, 0.000000)" fill="#9AD14B">
                <path d="M10.6615793,7.38632716 C11.4804345,9.607 10.4421103,12.1107037 8.34277931,12.9768889 C8.15236552,12.461784 8.06254483,11.9312716 8.06254483,11.4094259 C8.06254483,9.68283333 9.04829655,8.05205556 10.6615793,7.38632716 Z" id="Path"></path>
                <path d="M3.33975172,0 C5.04186897,1.56361111 5.22416552,4.28983951 3.7459931,6.09033951 C2.81645517,5.23659259 2.34034483,4.03561728 2.34034483,2.82790123 C2.34034483,1.82449383 2.66958621,0.817314815 3.33975172,0 Z" id="Path"></path>
                <path d="M5.82628276,9.29427778 C4.12143448,10.8530741 1.54417241,10.6555062 0.0696413793,8.85203704 C0.841386207,8.14698765 1.79087586,7.80072222 2.73664828,7.80072222 C3.88110345,7.80072222 5.01918621,8.30724074 5.82628276,9.29427778 Z" id="Path"></path>
            </g>
            <path d="M31.4353701,21 C31.4236939,21 31.4120176,20.9996198 31.4002614,20.9989356 C31.1105141,20.9807643 30.8910643,20.7427136 30.9101781,20.467256 C31.3995416,13.4073906 27.1422636,6.77306658 20.3166873,3.95850256 C20.0502125,3.84863884 19.9280116,3.55424969 20.0435746,3.30106894 C20.1590577,3.04773613 20.4688786,2.9315619 20.7351134,3.04142562 C27.9671997,6.02356032 32.4779966,13.0529376 31.9596024,20.5330982 C31.9412083,20.7973033 31.7099223,21 31.4353701,21 Z" id="Path" fill="#B27214"></path>
            <path d="M32,16.1260577 C31.965285,16.1403069 31.9304924,16.1545561 31.896088,16.1695061 C29.9310801,17.0260161 28.7645945,19.0867013 29.0475954,21.2256403 C29.5336828,24.893839 28.1777016,28.3332717 25.7419833,30.6765273 C23.754065,32.5893477 21.0461409,33.7724216 18.0343247,33.7535784 C17.7354031,33.7517097 17.4405198,33.8118211 17.1705662,33.9294744 C17.0000201,34.0037572 16.8394924,34.1010879 16.6930992,34.2205321 C14.5926485,35.9344865 13.7965337,38.0589427 13.5054559,39.2011377 C13.3774687,39.7026632 12.9067584,40.0344441 12.3924019,39.997147 C8.80176966,39.7338091 7.01530703,37.5803872 6.22144445,36.1690145 C5.89308884,35.5856533 6.17259495,34.8467188 6.80507557,34.6322019 C9.63819111,33.6707305 11.7207019,31.4623363 12.407546,30.6607208 C12.453755,30.6059042 12.4948383,30.5579396 12.5279224,30.5170607 C12.5758399,30.4597524 12.6097783,30.4166155 12.6305917,30.3912316 C12.6450369,30.3721548 12.6527254,30.3624996 12.6527254,30.3624996 C12.2745884,30.3121991 11.9068581,30.2546572 11.5500781,30.1887059 C10.8900274,30.0690281 10.266711,29.9232657 9.67803179,29.7542218 C8.86405471,29.5228862 8.11717773,29.2469343 7.43250815,28.9365662 C6.89454237,28.6916822 6.39463106,28.4255412 5.93106564,28.1408684 C5.01636074,27.5807109 4.24098175,26.9498523 3.5837269,26.2747667 C3.19782364,25.879682 2.85315898,25.4684015 2.54406359,25.0490231 C2.05121953,24.3779085 1.65118175,23.6817995 1.32670925,22.9838217 L1.32632094,22.9830431 C1.12571959,22.5518292 0.955328813,22.1211604 0.809013307,21.6936062 C0.776162214,21.5967427 0.743932418,21.4995678 0.712945217,21.40286 C0.457669702,20.5981299 0.288676846,19.8122431 0.179872162,19.0813286 C0.105627138,18.58502 0.0583308838,18.1133944 0.0323917229,17.6781316 C-0.0700446639,16.0393166 0.103219611,14.921026 0.103219611,14.921026 C1.8645197,16.0246002 3.73283824,16.4023989 5.56519921,16.4286393 C8.94109557,16.4756695 12.1942857,15.331995 14.4201608,15.3453099 C17.8530612,15.3665669 21.1008927,18.2421045 21.1008927,18.2421045 C21.1042322,18.2352525 21.1068727,18.228634 21.1105228,18.2224048 C22.5412927,15.142317 24.1492877,14.1689323 25.4759904,14.020834 C25.8549817,13.9786314 26.2113734,14.0037816 26.5342926,14.0671634 C26.5350692,14.066774 26.5350692,14.066774 26.5350692,14.066774 C27.5579575,14.266263 28.2399089,14.8431614 28.2399089,14.8431614 C29.9455253,16.5748689 32,16.1260577 32,16.1260577 Z" id="Path" fill="#2BA5F7"></path>
            <g id="Group" transform="translate(1.000000, 14.000000)" fill="#0F8DD3">
                <path d="M25.9558623,0.0734850299 C25.8875928,0.0904550898 22.3773593,1.00598204 22.764479,6.10727545 L20.5193713,4.22749102 C21.953497,1.14820359 23.5652635,0.175071856 24.8950778,0.027011976 C25.2749581,-0.0150239521 25.6321078,0.0101197605 25.9558623,0.0734850299 Z" id="Path"></path>
                <path d="M13.2865449,16.4356587 C18.1646587,15.6101198 22.116503,14.0701257 20.8142455,11.202497 C17.9726168,4.94303593 1.68509581,7.17070659 0.0739520958,7.40735329 C1.27010778,11.1646647 4.35562275,15.3507425 12.0417365,16.364976 C12.0417365,16.364976 12.0341078,16.3746287 12.0195509,16.3937006 C11.9986886,16.4192335 11.9646707,16.4622814 11.9166407,16.519497 C11.3866766,17.1592216 9.20905988,19.6104611 6.17313174,20.6361377 C5.54165868,20.849509 5.26811377,21.589497 5.59537126,22.1701377 C6.39101796,23.5813772 8.18182635,25.7337725 11.7805689,25.9968862 C12.2960539,26.0345629 12.7682575,25.702479 12.8960778,25.2016287 C13.1878383,24.0591078 13.9861317,21.9354371 16.0911976,20.2220838 C16.4699102,19.9138204 16.9473293,19.7521377 17.4356467,19.7551737 C20.4545269,19.7740898 23.1688802,18.5912455 25.1613832,16.6789222 C19.6730479,18.7127605 14.0721497,16.7341916 13.2865449,16.4356587 Z" id="Path"></path>
            </g>
            <g id="Group" transform="translate(0.000000, 17.000000)" fill="#0569A0">
                <path d="M5.56113527,1.7514472 C5.55932934,2.01685714 5.40504192,2.24431677 5.18435329,2.34387578 C5.1061976,2.37908075 5.02103593,2.39765217 4.93081437,2.39773292 C2.99910778,2.3850559 1.29167066,1.90268323 0.162538922,1.48086957 C0.0881197605,0.966198758 0.0407125749,0.477124224 0.0147125749,0.025757764 C0.278682635,0.13831677 0.612479042,0.26936646 1.00138922,0.401223602 C2.01624551,0.744149068 3.41059281,1.08796273 4.93898802,1.09724845 C5.28407186,1.09934783 5.56353293,1.39213043 5.56113527,1.7514472 Z" id="Path"></path>
                <path d="M5.889,4.40796894 C5.99027545,4.72998137 5.83738922,5.07395652 5.54383832,5.20629814 C5.52624551,5.21421118 5.50748503,5.2217205 5.4881018,5.22761491 C4.3932994,5.59847826 2.67192814,5.60251553 1.31191018,5.5276646 L1.31152096,5.52685714 C1.1104491,5.07968944 0.939658683,4.63308696 0.793,4.18971429 C2.19746707,4.29452174 4.08379042,4.33610559 5.09864671,3.99196894 C5.42823952,3.88037888 5.78165269,4.06698137 5.889,4.40796894 Z" id="Path"></path>
                <path d="M6.63568263,8.25273913 C6.56173054,8.29367702 6.48458683,8.33130435 6.40409581,8.36763975 C5.5878982,8.73567702 4.50337126,8.88545963 3.57422156,8.94052795 C3.18741317,8.53082609 2.84194012,8.10432919 2.53211976,7.66943478 C3.53919162,7.67185714 5.00531138,7.58061491 5.89437126,7.17971429 C5.95026347,7.15452174 6.00405389,7.12836025 6.05527545,7.10058385 C6.36330539,6.9332795 6.74092814,7.05795031 6.90066467,7.37624845 C7.06133533,7.69414286 6.94254491,8.08696894 6.63568263,8.25273913 Z" id="Path"></path>
                <path d="M9.22361677,10.7597205 C8.89799401,11.0133416 8.43956886,11.2588075 7.94759281,11.4807764 C7.77820359,11.5571615 7.60484431,11.630559 7.43210778,11.7009689 C6.89288024,11.4470248 6.39179641,11.1710373 5.92714371,10.8758323 C6.8339521,10.565205 7.9498503,10.1253043 8.47164072,9.71988199 C8.74845509,9.50421118 9.1411018,9.56267081 9.34894611,9.84980124 C9.55679042,10.1369317 9.50058683,10.5440497 9.22361677,10.7597205 Z" id="Path"></path>
                <path d="M12.7471617,12.1547578 C12.4946347,12.4132236 12.0357425,12.718441 11.5594132,12.9994348 C10.8978144,12.8753292 10.2730359,12.7241739 9.68297605,12.5488758 C10.4526228,12.1611366 11.5483593,11.5554658 11.866509,11.2295776 C12.1131198,10.9766025 12.5100479,10.9800745 12.7528443,11.2353913 C12.9962635,11.4904658 12.9936946,11.9017826 12.7471617,12.1547578 Z" id="Path"></path>
            </g>
            <circle id="Oval" fill="#4D4D4D" cx="26.5" cy="17.5" r="1"></circle>
        </g>
    </g>
</svg>